<svg width="24" height="24" viewBox="0 0 24 24" fill="none" xmlns="http://www.w3.org/2000/svg">
<circle cx="12" cy="12" r="12" fill="#FF0000"/>
<g clip-path="url(#clip0_357_2316)">
<path fill-rule="evenodd" clip-rule="evenodd" d="M11.3106 18.2876C10.1571 17.5818 9.30725 15.1461 9.30725 12.2522C9.30725 12.146 9.30797 12.0413 9.31039 11.9367L9.31178 11.9382C6.10338 11.4457 3.78524 10.0962 3.72587 8.50053L3.71646 8.51892C2.93142 9.47193 2.48333 10.5738 2.48333 11.7479C2.48333 15.2027 6.36562 18.0334 11.2899 18.2838L11.3106 18.2876ZM1 12C1 8.13426 5.92467 5 12 5C18.0752 5 23 8.13426 23 12C23 15.8656 18.0751 19 12 19C5.92467 19 1 15.8656 1 12ZM12 6.01024C13.1728 6.01024 14.1704 7.74807 14.5399 10.1729L14.5413 10.1692C16.8229 9.82228 18.4205 9.02196 18.4205 8.09066C18.4205 6.8407 15.5456 5.82859 12 5.82859C8.45413 5.82859 5.57953 6.84079 5.57953 8.09066C5.57953 9.02196 7.1768 9.82228 9.45868 10.1692L9.46008 10.1729C9.82962 7.74815 10.8275 6.01024 12 6.01024ZM12.71 18.2837C17.6342 18.0334 21.517 15.2026 21.517 11.7478C21.517 10.5738 21.0684 9.47193 20.2835 8.51884L20.2739 8.50044C20.2145 10.0961 17.897 11.4456 14.6882 11.9381L14.6896 11.9366C14.6918 12.0413 14.6929 12.1459 14.6929 12.2521C14.6929 15.1461 13.8425 17.5818 12.6897 18.2876L12.71 18.2837ZM12 10.3531C12.5254 10.3531 13.0362 10.3312 13.5249 10.2891L13.5242 10.2899C13.281 8.73548 12.6903 7.63847 12 7.63847C11.3097 7.63847 10.7191 8.73548 10.4755 10.2899L10.4749 10.2891C10.9636 10.3312 11.4746 10.3531 12 10.3531L12 10.3531ZM12 16.1093C12.8829 16.1093 13.6032 14.3144 13.6416 12.0631L13.6463 12.0648C13.1141 12.1129 12.5636 12.138 12.0001 12.138C11.436 12.138 10.886 12.1129 10.3538 12.0648L10.3588 12.0631C10.3966 14.3143 11.1167 16.1093 12 16.1093Z" fill="white"/>
</g>
<defs>
<clipPath id="clip0_357_2316">
<rect width="22" height="14" fill="white" transform="translate(1 5)"/>
</clipPath>
</defs>
</svg>
