<?xml version="1.0" encoding="UTF-8"?>
<svg width="162px" height="25px" viewBox="0 0 162 25" version="1.1" xmlns="http://www.w3.org/2000/svg" xmlns:xlink="http://www.w3.org/1999/xlink">
    <title>Walmarthealth_logo</title>
    <g id="Walmarthealth_logo" stroke="none" stroke-width="1" fill="none" fill-rule="evenodd">
        <g id="Header/Mobile-Homepage-Copy-2" fill-rule="nonzero">
            <g id="Logo/Health">
                <g id="Logo" transform="translate(79.000000, 0.000000)">
                    <g id="Group" fill="#FFC20E">
                        <path d="M10.999596,8.46333333 C11.576404,8.46333333 12.0492525,8.16666667 12.1163232,7.78 L12.6864242,1.38 C12.6864242,0.746666667 11.9419394,0.226666667 11.0029495,0.226666667 C10.0673131,0.226666667 9.32282828,0.746666667 9.32282828,1.38 L9.89292929,7.78 C9.94993939,8.16666667 10.4261414,8.46333333 10.999596,8.46333333 L10.999596,8.46333333 Z" id="Path"></path>
                        <path d="M7.51862626,10.4633333 C7.8070303,9.96666667 7.78690909,9.41 7.48173737,9.16333333 L2.18985859,5.47333333 C1.63987879,5.15666667 0.814909091,5.53666667 0.345414141,6.34333333 C-0.124080808,7.15 -0.0402424242,8.05 0.509737374,8.36666667 L6.36836364,11.08 C6.73389899,11.2166667 7.23357576,10.9566667 7.5219798,10.46 L7.51862626,10.4633333 Z" id="Path"></path>
                        <path d="M14.4805657,10.46 C14.7689697,10.9566667 15.2652929,11.2166667 15.6341818,11.08 L21.4961616,8.36666667 C22.0494949,8.05 22.1266263,7.15 21.6604848,6.34333333 C21.1909899,5.53666667 20.3626667,5.15666667 19.8160404,5.47 L14.5208081,9.16333333 C14.2189899,9.41 14.1955152,9.97 14.4839192,10.4633333 L14.4805657,10.46 Z" id="Path"></path>
                        <path d="M10.999596,16.46 C11.576404,16.46 12.0492525,16.7566667 12.1163232,17.14 L12.6864242,23.54 C12.6864242,24.1733333 11.9419394,24.6933333 11.0029495,24.6933333 C10.0673131,24.6933333 9.32282828,24.1733333 9.32282828,23.54 L9.89292929,17.14 C9.94993939,16.7533333 10.4261414,16.46 10.999596,16.46 L10.999596,16.46 Z" id="Path"></path>
                        <path d="M14.4805657,14.46 C14.7689697,13.9633333 15.2652929,13.7066667 15.6341818,13.8433333 L21.4961616,16.5533333 C22.0494949,16.87 22.1266263,17.7733333 21.6604848,18.58 C21.1909899,19.3833333 20.3626667,19.7666667 19.8160404,19.45 L14.5208081,15.76 C14.2189899,15.51 14.1955152,14.9533333 14.4805657,14.46 L14.4805657,14.46 Z" id="Path"></path>
                        <path d="M7.51862626,14.46 C7.8070303,14.9566667 7.78690909,15.5133333 7.48173737,15.7633333 L2.18985859,19.4466667 C1.63987879,19.7633333 0.814909091,19.38 0.345414141,18.5766667 C-0.124080808,17.77 -0.0402424242,16.87 0.509737374,16.55 L6.36836364,13.84 C6.73389899,13.7066667 7.23357576,13.9633333 7.51862626,14.46 L7.51862626,14.46 Z" id="Path"></path>
                    </g>
                    <g id="Group" transform="translate(26.492929, 5.000000)" fill="#FFFFFF">
                        <path d="M0.204565657,0.69 C0.204565657,0.486666667 0.389010101,0.306666667 0.590222222,0.306666667 L1.3850101,0.306666667 C1.60969697,0.306666667 1.77066667,0.49 1.77066667,0.69 L1.77066667,6.59666667 L10.0337778,6.59666667 L10.0337778,0.69 C10.0337778,0.486666667 10.1947475,0.306666667 10.4194343,0.306666667 L11.2142222,0.306666667 C11.4187879,0.306666667 11.5998788,0.49 11.5998788,0.69 L11.5998788,14.08 C11.5998788,14.2833333 11.4154343,14.4633333 11.2142222,14.4633333 L10.4194343,14.4633333 C10.1947475,14.4633333 10.0337778,14.28 10.0337778,14.08 L10.0337778,7.95 L1.77066667,7.95 L1.77066667,14.0766667 C1.77066667,14.28 1.60969697,14.46 1.3850101,14.46 L0.590222222,14.46 C0.385656566,14.46 0.204565657,14.2766667 0.204565657,14.0766667 L0.204565657,0.69 Z" id="Path"></path>
                        <path d="M19.1285657,4.91666667 C21.5900606,4.91666667 23.3808485,6.71666667 23.3808485,9.16333333 C23.3808485,9.32333333 23.3607273,9.56666667 23.3406061,9.73 C23.3204848,9.97333333 23.1159192,10.1366667 22.9147071,10.1366667 L16.0768485,10.1366667 C16.1170909,11.6933333 17.4417374,13.3333333 19.1486869,13.3333333 C20.3894949,13.3333333 21.1641616,12.91 21.6906667,12.5633333 C22.0159596,12.34 22.1601616,12.26 22.4016162,12.6233333 L22.6464242,12.9666667 C22.8308687,13.25 22.9113535,13.35 22.5659394,13.6133333 C21.9958384,14.06 20.7550303,14.6866667 19.1285657,14.6866667 C16.2780606,14.6866667 14.5711111,12.4633333 14.5711111,9.79333333 C14.5711111,7.16333333 16.2780606,4.91666667 19.1285657,4.91666667 Z M21.8751111,8.94 C21.8348687,7.56333333 20.7349091,6.27 19.1285657,6.27 C17.5423434,6.27 16.2780606,7.48333333 16.0969697,8.94 L21.8751111,8.94 Z" id="Shape"></path>
                        <path d="M28.8001616,8.53666667 C29.7961616,8.53666667 30.8156364,8.84 30.8156364,8.84 C30.8357576,7.12 30.0007273,6.27 28.6593131,6.27 C27.6197172,6.27 26.9087677,6.67333333 26.4828687,6.81666667 C26.2380606,6.91666667 26.1173333,6.79666667 26.0334949,6.57333333 L25.8289293,6.02666667 C25.7484444,5.74333333 25.8892929,5.62333333 26.1139798,5.52 C26.5834747,5.31666667 27.4386263,4.91333333 28.739798,4.91333333 C31.1409293,4.91333333 32.2610101,6.33 32.2610101,8.83666667 L32.2610101,14.1766667 C32.2610101,14.4 32.1201616,14.54 31.8954747,14.54 C31.2851313,14.54 30.9598384,14.0733333 30.8994747,13.4466667 C30.4098586,13.9533333 29.4138586,14.68 27.9483636,14.68 C26.2984242,14.68 25.0374824,13.5066667 25.0374824,11.6266667 C25.0341414,9.85333333 26.3789091,8.53666667 28.8001616,8.53666667 Z M28.2099394,13.33 C29.3702626,13.33 30.3863838,12.6833333 30.7955152,12.0766667 L30.7955152,10.1766667 C30.4903434,10.0133333 29.7391515,9.81333333 28.8001616,9.81333333 C27.4989899,9.81333333 26.5197576,10.44 26.5197576,11.6333333 C26.5197576,12.5833333 27.1703434,13.33 28.2099394,13.33 Z" id="Shape"></path>
                        <path d="M35.3496162,0.75 C35.3496162,0.526666667 35.5541818,0.303333333 35.7956364,0.303333333 L36.4059798,0.303333333 C36.6306667,0.303333333 36.852,0.526666667 36.852,0.75 L36.852,14.0166667 C36.852,14.26 36.6273131,14.46 36.4059798,14.46 L35.7956364,14.46 C35.5508283,14.46 35.3496162,14.2566667 35.3496162,14.0166667 L35.3496162,0.75 Z" id="Path"></path>
                        <path d="M39.3705051,6.41333333 C39.0854545,6.41333333 38.9010101,6.21 38.9010101,5.97 L38.9010101,5.56666667 C38.9010101,5.30333333 39.0854545,5.12 39.3705051,5.12 L40.6113131,5.12 L40.6113131,2.53 C40.6113131,2.28666667 40.836,2.10666667 41.0573333,2.08666667 L41.687798,2.04666667 C41.9326061,2.02666667 42.113697,2.25 42.113697,2.49 L42.113697,5.12 L44.8803636,5.12 C45.1452929,5.12 45.3498586,5.30333333 45.3498586,5.56666667 L45.3498586,5.97 C45.3498586,6.21333333 45.1452929,6.41333333 44.8803636,6.41333333 L42.113697,6.41333333 L42.113697,11.9366667 C42.113697,12.9066667 42.7240404,13.3333333 43.3746263,13.3333333 C43.9447273,13.3333333 44.4343434,13.15 44.82,12.9266667 C45.1855354,12.7033333 45.3297374,12.8866667 45.4102222,13.11 L45.5745455,13.5166667 C45.6952727,13.82 45.6550303,13.9833333 45.4102222,14.1233333 C44.964202,14.3666667 44.1492929,14.69 43.1935354,14.69 C41.5469495,14.69 40.6113131,13.3966667 40.6113131,11.94 L40.6113131,6.41333333 L39.3705051,6.41333333 Z" id="Path"></path>
                        <path d="M47.6470303,0.75 C47.6470303,0.526666667 47.851596,0.303333333 48.0930505,0.303333333 L48.7033939,0.303333333 C48.9280808,0.303333333 49.1494141,0.526666667 49.1494141,0.75 L49.1494141,6.11 C49.1494141,6.11 50.2493737,4.91666667 52.1407677,4.91666667 C54.4815354,4.91666667 55.537899,6.35333333 55.537899,9.08333333 L55.537899,14.02 C55.537899,14.2633333 55.3132121,14.4633333 55.0918788,14.4633333 L54.4614141,14.4633333 C54.2166061,14.4633333 54.0153939,14.26 54.0153939,14.02 L54.0153939,9.08333333 C54.0153939,7.30333333 53.4855354,6.27333333 52.0401616,6.27333333 C50.2493737,6.27333333 49.1494141,7.60666667 49.1494141,7.60666667 L49.1494141,14.02 C49.1494141,14.2633333 48.9247273,14.4633333 48.7033939,14.4633333 L48.0930505,14.4633333 C47.8482424,14.4633333 47.6470303,14.26 47.6470303,14.02 L47.6470303,0.75 L47.6470303,0.75 Z" id="Path"></path>
                    </g>
                </g>
                <g id="Group-8" transform="translate(0.000000, 5.000000)" fill="#FFFFFF">
                    <path d="M59.2798595,6.70862419 C59.2798595,4.4365651 58.2836285,2.42666667 54.8722922,2.42666667 C53.1213407,2.42666667 51.7326552,2.89273007 50.9779347,3.32966451 L51.5213334,5.16478917 C52.2156762,4.75698369 53.3024737,4.40743613 54.3590823,4.40743613 C56.0798448,4.40743613 56.3515442,5.33956294 56.3515442,5.95127116 L56.3515442,6.09691597 C52.6081309,6.09691597 50.2232143,7.34946137 50.2232143,9.9128101 C50.2232143,11.4857741 51.430767,12.9422222 53.5439842,12.9422222 C54.8421033,12.9422222 55.9289008,12.4470299 56.5628659,11.6605479 L56.6232436,11.6605479 C56.6232436,11.6605479 57.045887,13.3791567 59.4308036,12.7383195 C59.3100483,12.0100954 59.2798595,11.2527424 59.2798595,10.3206156 L59.2798595,6.70862419 Z M56.4722995,9.1263281 C56.4722995,9.30110188 56.4421107,9.50500462 56.4119218,9.67977839 C56.2006001,10.3788735 55.4458797,10.9614528 54.5100263,10.9614528 C53.7251171,10.9614528 53.1213407,10.5245183 53.1213407,9.62152047 C53.1213407,8.25245922 54.6911593,7.8737827 56.4722995,7.8737827 L56.4722995,9.1263281 Z" id="Shape"></path>
                    <path d="M0.837053571,0.055734327 C0.837053571,0.055734327 3.36096129,9.33549978 3.7660329,10.8403266 C4.23342322,12.5959579 5.0747258,13.2369027 7.53631481,12.8188952 L9.1254419,7.05039237 C9.53051351,5.62916703 9.8109477,4.59808198 10.0602225,3.14898948 L10.0913819,3.14898948 C10.278338,4.62594914 10.5276129,5.62916703 10.8703658,7.05039237 C10.8703658,7.05039237 11.5247122,9.66990574 11.8363057,11.0353968 C12.1790586,12.4008878 13.0826799,13.2647698 15.4819502,12.7910281 L19.2522321,0.0278671635 L16.1986154,0.0278671635 L14.9210819,5.54556554 C14.578329,7.16186102 14.2667354,8.41588338 14.0174606,9.86497588 L13.9863012,9.86497588 C13.7681857,8.41588338 13.4877515,7.21759535 13.1449986,5.62916703 L11.8051464,0 L8.62689222,0 L7.19356191,5.48983121 C6.7884903,7.16186102 6.41457805,8.49948487 6.16530321,9.92071021 L6.13414385,9.92071021 C5.88486902,8.58308636 5.54211612,6.88318939 5.19936322,5.29476107 C5.19936322,5.29476107 4.35806064,1.36549101 4.0464671,0.0278671635 L0.837053571,0.0278671635 L0.837053571,0.055734327 Z" id="Path"></path>
                    <path d="M27.441635,6.72051852 C27.441635,4.44214815 26.445404,2.42666667 23.0340676,2.42666667 C21.2831162,2.42666667 19.8944306,2.89402469 19.1397102,3.33217284 L19.6831089,5.17239506 C20.3774517,4.76345679 21.4642491,4.41293827 22.5208577,4.41293827 C24.2416203,4.41293827 24.5133197,5.34765432 24.5133197,5.96106173 L24.5133197,6.10711111 C20.8000951,6.07790123 18.4151786,7.3631358 18.4151786,9.90439506 C18.4151786,11.4817284 19.6227313,12.9422222 21.7359485,12.9422222 C23.0340676,12.9422222 24.120865,12.4456543 24.7548302,11.6569877 L24.8152078,11.6569877 C24.8152078,11.6569877 25.2378513,13.3803704 27.6227679,12.7377531 C27.5020126,12.0075062 27.4718238,11.2480494 27.4718238,10.3133333 L27.4718238,6.72051852 L27.441635,6.72051852 Z M24.6340749,9.14493827 C24.6340749,9.32019753 24.6038861,9.52466667 24.5736973,9.69992593 C24.3623756,10.400963 23.6076552,10.9851605 22.6718018,10.9851605 C21.8868926,10.9851605 21.2831162,10.5470123 21.2831162,9.64150617 C21.2831162,8.26864198 22.8529347,7.88891358 24.6340749,7.88891358 L24.6340749,9.14493827 Z" id="Shape"></path>
                    <polygon id="Path" points="30.9709821 10.195186 30.9709821 0 28.4598214 0 28.4598214 12.9422222 30.9709821 12.9422222"></polygon>
                    <path d="M68.6383929,0 C68.6383929,1.2220124 68.6383929,9.38727706 68.6383929,9.38727706 C68.6383929,10.6926085 68.941464,11.5813448 69.5812808,12.136805 C70.1200739,12.6089461 71.0292873,12.9422222 72.140548,12.9422222 C73.0497614,12.9422222 73.9926493,12.8033572 74.3967442,12.6644921 L74.3630696,10.6370625 C74.0263239,10.6926085 73.6895782,10.7481545 73.1844597,10.7481545 C72.1068735,10.7481545 71.7701278,10.1926943 71.7701278,9.02622794 L71.7701278,5.41573677 L74.4977679,5.41573677 L74.4977679,2.97171197 L71.7701278,2.97171197 L71.7701278,0 L68.6383929,0 Z" id="Path"></path>
                    <path d="M61.9419643,2.6363786 L61.9419643,12.9422222 L64.7266178,12.9422222 L64.7266178,7.66946502 C64.7266178,7.36987654 64.7556246,7.13020576 64.7846314,6.92049383 C64.987679,5.81201646 65.7998696,5.12296296 66.9891487,5.12296296 C67.3082236,5.12296296 67.540278,5.15292181 67.8013393,5.18288066 L67.8013393,2.48658436 C67.5982916,2.45662551 67.4532576,2.42666667 67.1921963,2.42666667 C66.1479513,2.42666667 64.9586722,3.11572016 64.4655565,4.61366255 L64.3785361,4.61366255 L64.3785361,2.66633745 L61.9419643,2.66633745 L61.9419643,2.6363786 Z" id="Path"></path>
                    <path d="M33.4821429,2.63578283 L33.4821429,12.9123485 L36.3963294,12.9123485 L36.3963294,6.90772727 C36.3963294,6.63886364 36.4273313,6.34012626 36.5203373,6.07126263 C36.7683532,5.47378788 37.3573909,4.75681818 38.2874504,4.75681818 C39.4655258,4.75681818 39.9925595,5.71277778 39.9925595,7.0869697 L39.9925595,12.9422222 L42.875744,12.9422222 L42.875744,6.81810606 C42.875744,6.54924242 42.906746,6.22063131 42.999752,5.98164141 C43.2477679,5.29454545 43.8678075,4.72694444 44.7358631,4.72694444 C45.9139385,4.72694444 46.5029762,5.6530303 46.5029762,7.26621212 C46.5029762,7.26621212 46.5029762,11.597904 46.5029762,12.8824747 L49.3861607,12.8824747 L49.3861607,6.87785354 C49.3861607,3.68136364 47.7120536,2.42666667 45.8209325,2.42666667 C44.983879,2.42666667 44.3018353,2.63578283 43.7127976,2.99426768 C43.2167659,3.29300505 42.7517361,3.71123737 42.3487103,4.27883838 L42.3177083,4.27883838 C41.8526786,3.1735101 40.7676091,2.42666667 39.3725198,2.42666667 C37.5744048,2.42666667 36.7683532,3.32287879 36.2723214,4.06972222 L36.2413194,4.06972222 L36.2413194,2.66565657 L33.4821429,2.66565657 L33.4821429,2.63578283 Z" id="Path"></path>
                </g>
            </g>
        </g>
    </g>
</svg>