<svg width="22" height="25" viewBox="0 0 22 25" fill="none" xmlns="http://www.w3.org/2000/svg">
<path d="M10.96 8.23667C11.5368 8.23667 12.0096 7.94 12.0767 7.55333L12.6468 1.15333C12.6468 0.52 11.9023 0 10.9633 0C10.0277 0 9.2832 0.52 9.2832 1.15333L9.8533 7.55333C9.91031 7.94 10.3865 8.23667 10.96 8.23667Z" fill="#FFC20E"/>
<path d="M7.479 10.2366C7.7674 9.73994 7.74728 9.18327 7.44211 8.93661L2.15023 5.24661C1.60025 4.92994 0.77528 5.30994 0.305785 6.11661C-0.16371 6.92327 -0.0798714 7.82327 0.470108 8.13994L6.32873 10.8533C6.69427 10.9899 7.19395 10.7299 7.48235 10.2333L7.479 10.2366Z" fill="#FFC20E"/>
<path d="M14.4408 10.2333C14.7292 10.73 15.2256 10.99 15.5945 10.8533L21.4564 8.13995C22.0098 7.82329 22.0869 6.92329 21.6208 6.11662C21.1513 5.30995 20.3229 4.92995 19.7763 5.24329L14.4811 8.93662C14.1793 9.18329 14.1558 9.74329 14.4442 10.2366L14.4408 10.2333Z" fill="#FFC20E"/>
<path d="M10.96 16.2334C11.5368 16.2334 12.0096 16.5301 12.0767 16.9134L12.6468 23.3134C12.6468 23.9467 11.9023 24.4667 10.9633 24.4667C10.0277 24.4667 9.2832 23.9467 9.2832 23.3134L9.8533 16.9134C9.91031 16.5267 10.3865 16.2334 10.96 16.2334Z" fill="#FFC20E"/>
<path d="M14.4408 14.2332C14.7292 13.7365 15.2256 13.4799 15.5945 13.6165L21.4564 16.3265C22.0098 16.6432 22.0869 17.5465 21.6208 18.3532C21.1513 19.1565 20.3229 19.5399 19.7763 19.2232L14.4811 15.5332C14.1793 15.2832 14.1558 14.7265 14.4408 14.2332Z" fill="#FFC20E"/>
<path d="M7.479 14.2331C7.7674 14.7298 7.74728 15.2864 7.44211 15.5364L2.15023 19.2198C1.60025 19.5364 0.77528 19.1531 0.305785 18.3498C-0.16371 17.5431 -0.0798714 16.6431 0.470108 16.3231L6.32873 13.6131C6.69427 13.4798 7.19395 13.7364 7.479 14.2331Z" fill="#FFC20E"/>
</svg>
